<svg width="20" height="20" viewBox="0 0 20 20" fill="none" xmlns="http://www.w3.org/2000/svg">
<g clip-path="url(#clip0_1332_2090)">
<mask id="mask0_1332_2090" style="mask-type:luminance" maskUnits="userSpaceOnUse" x="0" y="0" width="20" height="20">
<path d="M20 0H0V20H20V0Z" fill="white"/>
</mask>
<g mask="url(#mask0_1332_2090)">
<path d="M10.8334 0.832711C10.8334 0.611697 10.9211 0.399735 11.0775 0.243455C11.2337 0.0871753 11.4457 -0.000622314 11.6667 -0.000622314C13.8761 0.00180402 15.9943 0.880558 17.5565 2.44283C19.1189 4.00512 19.9976 6.12332 20 8.33272C20 8.55376 19.9122 8.76568 19.756 8.92201C19.5997 9.07826 19.3877 9.16601 19.1667 9.16601C18.9457 9.16601 18.7337 9.07826 18.5775 8.92201C18.4211 8.76568 18.3334 8.55376 18.3334 8.33272C18.3314 6.56521 17.6284 4.87067 16.3785 3.62086C15.1287 2.37105 13.4342 1.66803 11.6667 1.66604C11.4457 1.66604 11.2337 1.57825 11.0775 1.42197C10.9211 1.26568 10.8334 1.05372 10.8334 0.832711ZM11.6667 4.99937C12.5508 4.99937 13.3986 5.35057 14.0237 5.97569C14.6489 6.60081 15 7.44866 15 8.33272C15 8.55376 15.0878 8.76568 15.2441 8.92201C15.4004 9.07826 15.6124 9.16601 15.8334 9.16601C16.0544 9.16601 16.2664 9.07826 16.4226 8.92201C16.5789 8.76568 16.6667 8.55376 16.6667 8.33272C16.6654 7.00703 16.1381 5.73603 15.2008 4.79864C14.2634 3.86124 12.9924 3.33403 11.6667 3.33271C11.4457 3.33271 11.2337 3.42051 11.0775 3.57679C10.9211 3.73307 10.8334 3.94503 10.8334 4.16604C10.8334 4.38706 10.9211 4.59902 11.0775 4.7553C11.2337 4.91158 11.4457 4.99937 11.6667 4.99937ZM19.2442 13.9485C19.7271 14.4328 19.9983 15.0888 19.9983 15.7727C19.9983 16.4566 19.7271 17.1126 19.2442 17.5968L18.4859 18.471C11.6609 25.0052 -4.94747 8.40101 1.48586 1.55437L2.4442 0.721044C2.929 0.251609 3.57914 -0.00808142 4.25394 -0.00184328C4.92875 0.00439486 5.57398 0.276059 6.05003 0.754378C6.07586 0.780211 7.62003 2.78604 7.62003 2.78604C8.07822 3.2674 8.33328 3.90682 8.3322 4.57138C8.3311 5.23594 8.07395 5.87452 7.61419 6.35437L6.6492 7.56772C7.18323 8.86534 7.96841 10.0446 8.95962 11.0378C9.95079 12.031 11.1285 12.8186 12.425 13.3552L13.6459 12.3843C14.1258 11.925 14.7642 11.6681 15.4286 11.6672C16.093 11.6663 16.7321 11.9213 17.2134 12.3793C17.2134 12.3793 19.2184 13.9227 19.2442 13.9485ZM18.0975 15.1602C18.0975 15.1602 16.1034 13.626 16.0775 13.6002C15.9059 13.43 15.6739 13.3345 15.4321 13.3345C15.1904 13.3345 14.9584 13.43 14.7867 13.6002C14.7642 13.6235 13.0834 14.9627 13.0834 14.9627C12.9701 15.0528 12.8353 15.112 12.6922 15.1342C12.5492 15.1564 12.4028 15.1409 12.2675 15.0893C10.5879 14.464 9.06229 13.485 7.79405 12.2186C6.5258 10.9523 5.54453 9.42809 4.9167 7.74938C4.86102 7.61226 4.84288 7.46278 4.86411 7.31632C4.88534 7.16987 4.9452 7.03171 5.03753 6.91605C5.03753 6.91605 6.37669 5.23437 6.39919 5.21271C6.56941 5.04103 6.66492 4.80906 6.66492 4.56729C6.66492 4.32553 6.56941 4.09356 6.39919 3.92187C6.37336 3.89687 4.83919 1.90104 4.83919 1.90104C4.66495 1.7448 4.43753 1.66112 4.20356 1.66717C3.9696 1.67321 3.74681 1.76852 3.58086 1.93354L2.62253 2.76687C-2.07914 8.42017 12.3134 22.0143 17.2675 17.3327L18.0267 16.4577C18.2046 16.2929 18.3115 16.0654 18.3247 15.8233C18.3379 15.5812 18.2565 15.3434 18.0975 15.1602Z" fill="#373737"/>
</g>
</g>
<defs>
<clipPath id="clip0_1332_2090">
<rect width="20" height="20" fill="white"/>
</clipPath>
</defs>
</svg>
