<svg width="20" height="20" viewBox="0 0 20 20" fill="none" xmlns="http://www.w3.org/2000/svg">
<g clip-path="url(#clip0_1332_2098)">
<path d="M15.8333 0.833984H7.5C5.2 0.833984 3.33333 2.70065 3.33333 5.00065V11.6673C3.33333 13.9673 5.2 15.834 7.5 15.834H15.8333C18.1333 15.834 20 13.9673 20 11.6673V5.00065C20 2.70065 18.1333 0.833984 15.8333 0.833984ZM7.5 2.50065H15.8333C16.575 2.50065 17.2417 2.82565 17.7 3.33398L13.4333 7.60065C12.4583 8.57565 10.875 8.57565 9.9 7.60065L5.63333 3.33398C6.09167 2.81732 6.75833 2.50065 7.5 2.50065ZM15.8333 14.1673H7.5C6.125 14.1673 5 13.0423 5 11.6673V5.05898L8.71667 8.77565C9.525 9.58398 10.6 9.99232 11.6667 9.99232C12.7333 9.99232 13.8 9.58398 14.6167 8.77565L18.3333 5.05898V11.6673C18.3333 13.0423 17.2083 14.1673 15.8333 14.1673ZM15.8333 18.334C15.8333 18.7923 15.4583 19.1673 15 19.1673H4.16667C1.86667 19.1673 0 17.3007 0 15.0007V5.83398C0 5.37565 0.375 5.00065 0.833333 5.00065C1.29167 5.00065 1.66667 5.37565 1.66667 5.83398V15.0007C1.66667 16.3757 2.79167 17.5007 4.16667 17.5007H15C15.4583 17.5007 15.8333 17.8757 15.8333 18.334Z" fill="#373737"/>
</g>
<defs>
<clipPath id="clip0_1332_2098">
<rect width="20" height="20" fill="white"/>
</clipPath>
</defs>
</svg>
