<svg width="20" height="20" viewBox="0 0 20 20" fill="none" xmlns="http://www.w3.org/2000/svg">
<g clip-path="url(#clip0_1332_2102)">
<mask id="mask0_1332_2102" style="mask-type:luminance" maskUnits="userSpaceOnUse" x="0" y="0" width="20" height="20">
<path d="M20 0H0V20H20V0Z" fill="white"/>
</mask>
<g mask="url(#mask0_1332_2102)">
<path d="M7.96083 11.9983C8.52333 12.5483 9.26167 12.8233 10 12.8233C10.7383 12.8233 11.4767 12.5483 12.0392 11.9983L14.1242 9.95831C15.2258 8.85665 15.8333 7.39166 15.8333 5.83333C15.8333 4.275 15.2258 2.81083 14.1242 1.70833C13.0233 0.606666 11.5583 0 10 0C8.44167 0 6.97667 0.606666 5.875 1.70833C3.60083 3.9825 3.60083 7.68333 5.88167 9.96415L7.96083 11.9975V11.9983ZM7.05333 2.8875C7.84 2.10083 8.88667 1.6675 10 1.6675C11.1133 1.6675 12.1592 2.10083 12.9458 2.8875C13.7325 3.67416 14.1667 4.72083 14.1667 5.83416C14.1667 6.9475 13.7325 7.99333 12.9525 8.77415L10.8742 10.8075C10.3925 11.2775 9.6075 11.2775 9.12583 10.8075L7.05333 8.78081C5.42917 7.15583 5.42917 4.51166 7.05333 2.8875ZM7.5 5.82583C7.5 4.445 8.61917 3.32583 10 3.32583C11.3808 3.32583 12.5 4.445 12.5 5.82583C12.5 7.20666 11.3808 8.32583 10 8.32583C8.61917 8.32583 7.5 7.20666 7.5 5.82583ZM20 13.9733C20 14.2666 19.8458 14.5375 19.5958 14.6875L11.3783 19.6183C10.9533 19.8733 10.4767 20.0008 10.0008 20.0008C9.525 20.0008 9.0475 19.8733 8.62333 19.6183L0.404167 14.6883C0.153333 14.5375 0 14.2666 0 13.9741C0 13.6816 0.154167 13.41 0.404167 13.26L3.92833 11.1458C4.32417 10.9083 4.83583 11.0366 5.07167 11.4316C5.30833 11.8266 5.18083 12.3383 4.78583 12.575L2.4525 13.975L9.48 18.1916C9.80083 18.3833 10.1992 18.3833 10.52 18.1916L17.5475 13.975L15.2142 12.575C14.8192 12.3383 14.6917 11.8266 14.9283 11.4316C15.165 11.0366 15.6758 10.9083 16.0717 11.1458L19.5958 13.26C19.8467 13.4108 20 13.6808 20 13.9733Z" fill="#373737"/>
</g>
</g>
<defs>
<clipPath id="clip0_1332_2102">
<rect width="20" height="20" fill="white"/>
</clipPath>
</defs>
</svg>
