<svg width="214" height="31" viewBox="0 0 214 31" fill="none" xmlns="http://www.w3.org/2000/svg">
<path d="M96.515 0.603716C96.6819 0.603716 96.8211 0.603716 96.9881 0.603716C99.0197 0.603716 101.079 0.603716 103.111 0.603716C103.361 0.603716 103.528 0.687206 103.695 0.882017C105.894 3.66503 108.092 6.44805 110.319 9.23106C110.82 9.84332 111.321 10.4834 111.794 11.1235C111.961 11.3462 112.1 11.2905 112.239 11.1235C113.631 9.42587 115.022 7.75606 116.441 6.05842C117.889 4.30513 119.336 2.57966 120.811 0.854187C120.894 0.742866 121.089 0.631546 121.256 0.631546C123.482 0.603716 125.737 0.631546 127.963 0.631546C127.963 0.631546 127.991 0.631546 128.019 0.659376C127.824 0.909847 127.629 1.16032 127.406 1.41079C126.071 2.96928 124.735 4.5556 123.399 6.11409C121.506 8.36833 119.586 10.6226 117.694 12.849C117.054 13.6004 116.414 14.3518 115.773 15.1032C115.634 15.2702 115.634 15.3815 115.773 15.5485C118.501 18.8603 121.256 22.1721 123.983 25.456C125.347 27.098 126.711 28.7122 128.074 30.3541C128.102 30.382 128.102 30.4098 128.13 30.4933C128.019 30.4933 127.935 30.5211 127.852 30.5211C125.737 30.5211 123.622 30.5211 121.506 30.5211C121.339 30.5211 121.117 30.382 121.005 30.2428C119.837 28.7957 118.668 27.3485 117.499 25.9013C115.718 23.6749 113.937 21.4485 112.156 19.2221C111.989 18.9994 111.849 18.9994 111.682 19.2221C109.79 21.532 107.87 23.8697 105.977 26.1796C104.836 27.5711 103.695 28.9626 102.554 30.3263C102.471 30.4376 102.304 30.5211 102.164 30.5211C99.9102 30.5211 97.656 30.5211 95.4296 30.5211C95.4296 30.5211 95.4296 30.4933 95.4018 30.4655C95.7357 30.0758 96.0418 29.6862 96.3758 29.2966C97.9343 27.432 99.465 25.5674 101.023 23.7306C102.526 21.9494 104.001 20.1683 105.504 18.3872C106.395 17.3018 107.285 16.2164 108.204 15.1589C108.371 14.9641 108.371 14.8249 108.204 14.6301C106.506 12.5985 104.836 10.5669 103.139 8.53531C100.996 5.91927 98.8249 3.30324 96.6819 0.715036C96.5428 0.687206 96.5428 0.659376 96.515 0.603716Z" fill="#5234C9"/>
<path d="M33.1457 30.4933C33.1457 30.2707 33.1457 30.1037 33.1457 29.9367C33.1457 26.124 33.1457 22.2834 33.1457 18.4707C33.1457 17.441 33.2849 16.4669 33.7301 15.5207C34.1754 14.5744 34.9547 14.0178 35.9287 13.823C36.7636 13.6561 37.6542 13.6004 38.5169 13.6004C41.7731 13.5726 45.057 13.6004 48.3131 13.5726C49.0924 13.5726 49.8716 13.4612 50.5674 13.016C51.3466 12.5428 51.8197 11.8471 52.1259 11.0122C52.6268 9.56502 52.0424 7.9787 50.9292 7.1438C50.1778 6.5872 49.315 6.42022 48.3966 6.42022C45.0292 6.42022 41.6617 6.42022 38.2943 6.44805C36.6801 6.44805 35.0938 6.44805 33.4797 6.44805C33.2014 6.44805 33.1179 6.36456 33.1179 6.08625C33.1179 4.36079 33.1179 2.63532 33.1179 0.937677C33.1179 0.659376 33.2014 0.603716 33.4518 0.603716C38.6004 0.603716 43.7212 0.603716 48.8697 0.631546C50.79 0.631546 52.6546 1.02117 54.3523 1.99522C55.7716 2.83013 56.7735 4.02682 57.4136 5.52965C58.0537 7.03248 58.2485 8.6188 58.165 10.2051C58.0815 12.0976 57.6641 13.8787 56.5787 15.4928C55.5768 16.9957 54.2131 17.9697 52.5155 18.5542C51.0127 19.0829 49.482 19.2221 47.9235 19.1943C45.1683 19.1664 42.441 19.1943 39.6858 19.1943C39.1292 19.1943 38.99 19.3334 38.99 19.89C38.99 23.2853 38.99 26.6806 38.99 30.0758C38.99 30.4098 38.9066 30.4933 38.5726 30.4933C36.8471 30.4655 35.1495 30.4933 33.424 30.4933C33.3683 30.4933 33.2849 30.4933 33.1457 30.4933Z" fill="#5234C9"/>
<path d="M13.7481 9.39812C13.6089 9.64859 13.4976 9.87124 13.3863 10.1217C12.6905 11.8193 11.9948 13.517 11.299 15.2146C10.6033 16.9401 9.85187 18.6377 9.15612 20.3632C8.51603 21.9495 7.87593 23.5358 7.20801 25.1222C6.51225 26.8198 5.8165 28.5174 5.12075 30.2151C5.03726 30.4377 4.92594 30.5212 4.67546 30.5212C3.2283 30.4934 1.80896 30.5212 0.361792 30.5212C0.250471 30.5212 0.139151 30.5212 0 30.5212C0.166981 30.1038 0.306132 29.7141 0.445282 29.3245C0.751414 28.5731 1.05755 27.8495 1.36368 27.0981C1.80896 26.0127 2.25424 24.8995 2.69952 23.8141C3.14481 22.7009 3.59009 21.5599 4.03537 20.4467C4.42499 19.5005 4.81462 18.5264 5.20424 17.5802C5.64952 16.467 6.0948 15.3259 6.54008 14.2127C7.04103 12.9882 7.54197 11.7637 8.04291 10.5392C8.54386 9.31463 9.01697 8.09011 9.51791 6.86558C10.1302 5.36275 10.7146 3.85992 11.3269 2.32927C11.5773 1.74483 11.8 1.18823 12.0505 0.631627C12.1061 0.548137 12.2453 0.436816 12.3566 0.436816C13.1915 0.408986 14.0264 0.436816 14.8613 0.408986C15.1118 0.408986 15.1953 0.548137 15.2509 0.715118C15.6684 1.717 16.1137 2.71889 16.5311 3.7486C17.5608 6.25332 18.5905 8.7302 19.6203 11.2349C20.316 12.9326 21.0118 14.658 21.7075 16.3557C22.3754 17.942 23.0434 19.5283 23.6835 21.1146C24.2401 22.4505 24.7688 23.7863 25.3254 25.15C25.7707 26.2354 26.216 27.2929 26.6613 28.3783C26.9396 29.074 27.2179 29.7698 27.524 30.4934C27.3849 30.4934 27.2735 30.5212 27.1901 30.5212C25.7707 30.5212 24.3236 30.5212 22.9042 30.5212C22.6259 30.5212 22.4868 30.4655 22.3754 30.1594C21.457 27.8773 20.5108 25.5953 19.5646 23.3132C18.841 21.5599 18.1174 19.7788 17.3938 18.0255C16.7259 16.4392 16.058 14.825 15.3901 13.2387C14.8891 11.9863 14.3882 10.734 13.8872 9.50944C13.8872 9.48161 13.8594 9.48161 13.7481 9.39812Z" fill="#5234C9"/>
<path d="M61.1707 24.4821C61.3376 24.4821 61.449 24.4821 61.5603 24.4821C71.3008 24.4821 81.0692 24.4821 90.8098 24.4821C91.1159 24.4821 91.1994 24.5656 91.1994 24.8717C91.1994 26.625 91.1994 28.4061 91.1994 30.1594C91.1994 30.4377 91.1159 30.4934 90.8376 30.4934C82.1268 30.4934 73.4159 30.4934 64.7051 30.4934C64.399 30.4934 64.2876 30.3542 64.1763 30.1316C63.2023 28.3226 62.2282 26.4858 61.2542 24.6769C61.2263 24.6212 61.2263 24.5934 61.1707 24.4821Z" fill="#5234C9"/>
<path d="M61.0872 12.4594C61.282 12.4594 61.3933 12.4594 61.5325 12.4594C71.273 12.4594 81.0414 12.4594 90.7819 12.4594C91.1159 12.4594 91.1994 12.5429 91.1994 12.8768C91.1716 14.6023 91.1994 16.3278 91.1994 18.0811C91.1994 18.3315 91.1437 18.415 90.8654 18.415C82.0989 18.415 73.3046 18.415 64.5381 18.415C64.3433 18.415 64.2042 18.3594 64.1207 18.1924C63.1466 16.3834 62.1726 14.5745 61.1985 12.7655C61.1707 12.682 61.1428 12.5985 61.0872 12.4594Z" fill="#5234C9"/>
<path d="M61.115 0.353271C61.282 0.353271 61.3933 0.353271 61.4768 0.353271C65.4287 0.353271 69.4084 0.353271 73.3603 0.353271C79.0933 0.353271 84.8263 0.381102 90.5315 0.381102C91.1716 0.381102 91.1716 0.381102 91.1716 1.0212C91.1716 2.66317 91.1716 4.27732 91.1716 5.9193C91.1716 6.1976 91.1159 6.30892 90.8098 6.30892C82.0433 6.30892 73.2768 6.30892 64.5103 6.30892C64.3155 6.30892 64.1763 6.28109 64.0928 6.08628C63.1188 4.24949 62.1169 2.44053 61.1428 0.603743C61.1428 0.548083 61.1428 0.492422 61.115 0.353271Z" fill="#5234C9"/>
<path d="M155.279 8.98914C155.139 9.23961 155.028 9.46225 154.917 9.71272C154.221 11.4104 153.525 13.108 152.829 14.8056C152.134 16.5311 151.382 18.2288 150.687 19.9542C150.046 21.5405 149.406 23.1269 148.738 24.7132C148.043 26.4108 147.347 28.1085 146.651 29.8061C146.568 30.0287 146.456 30.1122 146.206 30.1122C144.759 30.0844 143.339 30.1122 141.892 30.1122C141.781 30.1122 141.67 30.1122 141.53 30.1122C141.697 29.6948 141.837 29.3051 141.976 28.9155C142.282 28.1641 142.588 27.4405 142.894 26.6891C143.339 25.6037 143.785 24.4905 144.23 23.4052C144.675 22.292 145.121 21.1509 145.566 20.0377C145.955 19.0915 146.345 18.1174 146.735 17.1712C147.18 16.058 147.625 14.917 148.071 13.8038C148.571 12.5792 149.072 11.3547 149.573 10.1302C150.074 8.90565 150.547 7.68112 151.048 6.45659C151.661 4.95377 152.245 3.45094 152.857 1.92028C153.108 1.33585 153.33 0.779244 153.581 0.222641C153.637 0.139151 153.776 0.0278302 153.887 0.0278302C154.722 5.58794e-09 155.557 0.0278302 156.392 0C156.642 0 156.726 0.139151 156.781 0.306132C157.199 1.30802 157.644 2.3099 158.062 3.33962C159.091 5.84433 160.121 8.32121 161.151 10.8259C161.846 12.5236 162.542 14.249 163.238 15.9467C163.906 17.533 164.574 19.1193 165.214 20.7056C165.771 22.0415 166.299 23.3773 166.856 24.741C167.301 25.8264 167.746 26.8839 168.192 27.9693C168.47 28.6651 168.748 29.3608 169.054 30.0844C168.915 30.0844 168.804 30.1122 168.721 30.1122C167.301 30.1122 165.854 30.1122 164.435 30.1122C164.156 30.1122 164.017 30.0566 163.906 29.7504C162.988 27.4684 162.041 25.1863 161.095 22.9042C160.371 21.1509 159.648 19.3698 158.924 17.6165C158.256 16.0302 157.588 14.416 156.921 12.8297C156.42 11.5773 155.919 10.325 155.418 9.10046C155.418 9.07263 155.39 9.07263 155.279 8.98914Z" fill="#5234C9"/>
<path d="M174.535 0.412354H179.727V30.1124H174.535V0.412354Z" fill="#5234C9"/>
<g clip-path="url(#clip0_2911_453)">
<path d="M213.531 14.9493C213.51 23.1274 207.025 29.9391 198.561 29.9391C190.281 29.9595 183.571 23.4945 183.531 15.0105C183.49 6.7508 190.057 0.0614784 198.459 0.000295562C206.739 -0.0608873 213.469 6.60805 213.531 14.9493ZM198.52 2.87589C191.872 2.8351 186.406 8.36195 186.386 14.9697C186.386 21.5978 191.892 27.0839 198.52 27.0839C205.128 27.0635 210.655 21.5978 210.635 14.9493C210.635 8.32117 205.108 2.8351 198.52 2.87589Z" fill="#5234C9"/>
<path d="M201.681 14.4392C201.804 14.5207 201.926 14.6023 202.048 14.6431C202.966 14.949 203.802 15.3773 204.394 16.1931C204.863 16.8253 205.067 17.5187 205.128 18.2733C205.209 19.0891 205.169 19.8844 204.924 20.6594C204.536 21.985 203.68 22.9232 202.436 23.535C201.416 24.0449 200.335 24.2488 199.193 24.2896C198.194 24.3304 197.194 24.31 196.236 24.0857C194.666 23.739 193.32 23.0252 192.504 21.5568C192.157 20.9245 191.953 20.2515 191.892 19.5377C191.872 19.2522 191.831 18.9463 191.79 18.6608C191.77 18.4976 191.81 18.4364 191.974 18.4364C192.993 18.4364 194.013 18.4364 195.033 18.4364C195.237 18.4364 195.257 18.5384 195.277 18.7016C195.359 19.7213 195.848 20.4963 196.746 20.9857C197.337 21.312 198.01 21.3732 198.663 21.3528C199.173 21.3324 199.703 21.2916 200.172 21.0469C200.784 20.7206 201.192 20.2515 201.335 19.5581C201.396 19.1706 201.457 18.7831 201.457 18.3957C201.437 17.172 200.743 16.4174 199.621 16.0707C198.948 15.8668 198.255 15.8668 197.562 15.8872C197.133 15.9075 197.133 15.8872 197.133 15.4589C197.133 14.6635 197.133 13.8885 197.133 13.0523C197.256 13.0523 197.378 13.0523 197.48 13.0523C197.929 13.0523 198.357 13.0727 198.806 13.032C199.744 12.93 200.539 12.5425 200.967 11.6655C201.457 10.6662 201.192 9.36098 200.274 8.85112C199.519 8.44324 198.724 8.36166 197.888 8.50442C197.256 8.60639 196.725 8.87152 196.318 9.36098C195.991 9.74847 195.787 10.1971 195.808 10.707C195.808 10.9109 195.746 10.9721 195.543 10.9721C194.543 10.9721 193.564 10.9721 192.565 10.9721C192.402 10.9721 192.32 10.9313 192.32 10.7478C192.341 9.17743 192.891 7.8518 194.115 6.85248C194.808 6.30184 195.604 5.93474 196.481 5.75119C197.398 5.56764 198.296 5.44528 199.234 5.52685C200.294 5.62883 201.335 5.83277 202.293 6.32223C203.333 6.85248 204.088 7.64786 204.455 8.76955C204.72 9.60571 204.72 10.4827 204.577 11.3596C204.414 12.2162 204.027 12.9096 203.354 13.4398C202.884 13.8069 202.395 14.0925 201.824 14.2556C201.783 14.2556 201.742 14.2964 201.722 14.3168C201.702 14.378 201.681 14.4188 201.681 14.4392Z" fill="#5234C9"/>
</g>
<defs>
<clipPath id="clip0_2911_453">
<rect width="30" height="29.9592" fill="white" transform="translate(183.53)"/>
</clipPath>
</defs>
</svg>
