<svg width="67" height="70" viewBox="0 0 67 70" fill="none" xmlns="http://www.w3.org/2000/svg">
<path d="M3.5 8.5573C3.49961 7.22796 3.84739 5.92204 4.50824 4.77142C5.16908 3.6208 6.11958 2.6662 7.26378 2.00403C8.40797 1.34185 9.70533 0.995531 11.0249 1.00004C12.3444 1.00456 13.6394 1.35974 14.7791 2.02973L59.7644 28.4649C60.8997 29.1285 61.8422 30.0807 62.4977 31.2263C63.1533 32.3718 63.4989 33.6707 63.5 34.993C63.5011 36.3153 63.1578 37.6147 62.5042 38.7614C61.8506 39.9081 60.9098 40.862 59.7756 41.5276L14.7791 67.9703C13.6394 68.6403 12.3444 68.9954 11.0249 69C9.70533 69.0045 8.40797 68.6582 7.26378 67.996C6.11958 67.3338 5.16908 66.3792 4.50824 65.2286C3.84739 64.078 3.49961 62.772 3.5 61.4427V8.5573Z" stroke="white" stroke-width="2" stroke-linecap="round" stroke-linejoin="round"/>
</svg>
